<svg version="1.2" xmlns="http://www.w3.org/2000/svg" viewBox="0 0 194 194" width="194" height="194">
	<title>pix-svg</title>
	<style>
		.s0 { fill: #b30006 } 
	</style>
	<g id="Layer">
		<path id="path2376_2_" class="s0" d="m150.5 144.3l-34.1 34.2c-10.6 10.5-27.9 10.5-38.5 0l-34-34.1h5.3c7.1 0 13.6-2.7 18.6-7.6l26.9-26.9c1.8-1.8 5.2-1.8 7 0l26.8 26.8c4.9 4.9 11.5 7.6 18.5 7.6z"/>
		<path id="path2380_2_" class="s0" d="m43.7 49.5l34-34c10.6-10.5 27.9-10.5 38.5 0l34.1 34.2h-3.3c-7 0-13.6 2.7-18.5 7.6l-26.9 26.8c-2 1.9-5.1 1.9-7 0l-26.9-26.9c-5-5-11.6-7.7-18.6-7.7z"/>
		<path id="path2384_2_" class="s0" d="m178.4 116.2l-20.6 20.6c-0.5-0.2-1-0.3-1.5-0.3h-9.4c-4.7 0-9.5-2-12.9-5.4l-26.8-26.8c-4.9-4.9-13.4-4.9-18.3 0l-26.8 26.9c-3.4 3.4-8.1 5.4-13 5.4h-11.5c-0.6 0-1 0.1-1.4 0.3l-20.7-20.6c-10.5-10.6-10.5-27.9 0-38.5l20.8-20.7c0.4 0.2 0.8 0.3 1.4 0.3h11.5c4.8 0 9.5 2 13 5.4l26.9 26.9c2.4 2.5 5.7 3.8 9 3.8 3.3 0 6.6-1.3 9.1-3.8l26.8-26.8c3.3-3.4 8.1-5.4 12.9-5.4h9.4c0.6 0 1.1-0.1 1.5-0.3l20.6 20.6c10.6 10.6 10.6 27.8 0 38.4z"/>
	</g>
</svg>