<svg width="103" height="71" viewBox="0 0 103 71" fill="none" xmlns="http://www.w3.org/2000/svg">
<path d="M0 0H1.17998V40.6957H0V0ZM2.35996 0H3.53994V40.6957H2.35996V0ZM9.44484 0H10.6248V40.6957H9.44484V0ZM32.4131 0H33.5931V40.6957H32.4131V0ZM40.0917 0H41.2717V40.6957H40.0917V0ZM47.5373 0H48.7173V40.6957H47.5373V0ZM49.4564 0H50.6363V40.6957H49.4564V0ZM51.3779 0H52.5579V40.6957H51.3779V0ZM53.5374 0H54.7174V40.6957H53.5374V0ZM55.697 0H56.8769V40.6957H55.697V0ZM61.6996 0H62.8796V40.6957H61.6996V0ZM76.5833 0H77.7633V40.6957H76.5833V0ZM92.1084 0H93.2884V40.6957H92.1084V0ZM96.3549 0H97.5348V40.6957H96.3549V0ZM99.4238 0H100.604V40.6957H99.4238V0ZM101.313 0H102.493V40.6957H101.313V0ZM17.2362 0H18.4162V40.6957H17.2362V0ZM5.4289 0H7.55336V40.6957H5.4289V0ZM19.4508 0H21.5753V40.6957H19.4508V0ZM29.2965 0H31.421V40.6957H29.2965V0ZM34.3371 0H36.4616V40.6957H34.3371V0ZM42.2587 0H44.3832V40.6957H42.2587V0ZM64.8437 0H68.1481V40.6957H64.8437V0ZM69.1602 0H71.7582V40.6957H69.1602V0ZM73.7148 0H75.8393V40.6957H73.7148V0ZM79.7375 0H83.2799V40.6957H79.7375V0ZM86.6745 0H90.217V40.6957H86.6745V0ZM11.8048 0H16.0537V40.6957H11.8048V0ZM22.8179 0H26.1224V40.6957H22.8179V0Z" fill="#B30006"/>
<path d="M0 69.7174V46.4199H6.70526C7.82569 46.3635 8.94326 46.6038 9.99049 47.1262C10.7933 47.5735 11.4701 48.3342 11.9277 49.3036C12.3811 50.221 12.6244 51.288 12.6292 52.3794C12.6292 53.3743 12.4138 54.3491 12.0076 55.1915C11.5502 56.1198 10.8989 56.8584 10.1303 57.3201C11.1169 57.6502 11.9936 58.392 12.6267 59.4324C13.2126 60.4476 13.5194 61.6903 13.4979 62.9605C13.5046 64.0147 13.3235 65.0565 12.9687 66.0037C12.6685 66.8533 12.2176 67.5974 11.6531 68.1746C11.0655 68.7235 10.4003 69.1151 9.69592 69.3268C8.75143 69.6095 7.78399 69.7406 6.8151 69.7174H0ZM2.36656 56.2102H6.23095C6.9857 56.2488 7.74108 56.158 8.47768 55.9401C9.01671 55.7618 9.49465 55.354 9.83571 54.7814C10.1532 54.1859 10.3136 53.4719 10.2925 52.7471C10.3036 52.0276 10.1554 51.3191 9.86567 50.7064C9.58916 50.1248 9.15964 49.6944 8.65742 49.4956C7.76656 49.2285 6.85216 49.119 5.93887 49.1702H2.36656V56.2102ZM2.36656 66.9704H6.8151C7.35322 66.9888 7.89161 66.9518 8.42526 66.8597C8.90799 66.7576 9.3714 66.5367 9.79078 66.2088C10.1739 65.8859 10.4848 65.4368 10.692 64.9069C10.9338 64.3049 11.0556 63.6334 11.0465 62.954C11.0632 62.1434 10.8842 61.3465 10.5347 60.6757C10.19 60.0315 9.69002 59.5561 9.11426 59.325C8.26294 59.0249 7.38188 58.8932 6.50056 58.9344H2.36656V66.9704ZM16.9529 58.3713C16.8034 55.0518 17.6615 51.7888 19.3419 49.2873C20.1338 48.2031 21.0931 47.3501 22.1563 46.7845C23.2196 46.219 24.3628 45.9539 25.5104 46.0066C27.0778 45.9784 28.6209 46.5121 29.9715 47.5493C31.2844 48.5611 32.338 50.0572 32.9996 51.8488C33.7131 53.7998 34.0694 55.9401 34.0406 58.1012C34.0697 60.2985 33.6939 62.4728 32.9446 64.4414C32.2653 66.2334 31.1804 67.7102 29.8367 68.6726C28.5084 69.6274 27.0147 70.1227 25.498 70.1112C23.9108 70.1455 22.3483 69.5961 20.9895 68.5261C19.682 67.4927 18.6347 65.9836 17.9764 64.1843C17.2982 62.3745 16.948 60.3856 16.9529 58.3713V58.3713ZM19.3918 58.4202C19.2902 60.8444 19.917 63.2249 21.1393 65.0566C21.6905 65.8437 22.3648 66.4675 23.1167 66.8859C23.8687 67.3042 24.6807 67.5072 25.498 67.4814C26.3202 67.5086 27.1372 67.3037 27.893 66.8806C28.6487 66.4576 29.3254 65.8265 29.8766 65.0305C31.1097 63.0867 31.7267 60.6022 31.6016 58.0849C31.6343 56.3807 31.3866 54.6871 30.8752 53.1182C30.4243 51.7652 29.6731 50.6191 28.7183 49.8276C27.7642 49.0459 26.6572 48.6402 25.5304 48.6592C24.7319 48.6434 23.9389 48.834 23.1972 49.2201C22.4555 49.6061 21.7799 50.1798 21.2092 50.9082C20.534 51.9357 20.025 53.1304 19.7127 54.4207C19.4004 55.711 19.2912 57.0703 19.3918 58.4169V58.4202ZM37.9174 69.7174V46.4199H40.2815V66.9671H49.0812V69.7174H37.9174ZM52.8707 69.7174V46.4199H65.7919V49.1702H55.2348V56.3046H65.1204V59.0386H55.2348V66.9671H66.2063V69.7174H52.8707ZM74.9436 69.7174V49.1702H69.0547V46.4199H83.2191V49.1702H77.3077V69.7174H74.9436ZM85.3985 58.3713C85.2503 55.0509 86.1103 51.7878 87.7925 49.2873C88.5844 48.2031 89.5436 47.3501 90.6069 46.7845C91.6702 46.219 92.8134 45.9539 93.961 46.0066C95.5283 45.9784 97.0715 46.5121 98.4221 47.5493C99.7349 48.5611 100.789 50.0572 101.45 51.8488C102.164 53.7998 102.52 55.9401 102.491 58.1012C102.52 60.2985 102.144 62.4728 101.395 64.4414C100.714 66.2365 99.6251 67.7147 98.2773 68.6759C96.949 69.6307 95.4553 70.1259 93.9386 70.1145C92.3503 70.1483 90.7869 69.5978 89.4276 68.5261C88.1229 67.4912 87.0783 65.9822 86.422 64.1843C85.7438 62.3745 85.3936 60.3856 85.3985 58.3713V58.3713ZM87.8374 58.4202C87.7358 60.8444 88.3626 63.2249 89.5849 65.0566C90.1361 65.8437 90.8104 66.4675 91.5623 66.8859C92.3143 67.3042 93.1263 67.5072 93.9436 67.4814C94.7681 67.5118 95.5879 67.3088 96.3464 66.8863C97.1049 66.4637 97.7841 65.8317 98.3372 65.0338C99.5702 63.0899 100.187 60.6054 100.062 58.0882C100.088 56.3818 99.8324 54.6882 99.3133 53.1214C98.8624 51.7684 98.1112 50.6224 97.1564 49.8309C96.2023 49.0492 95.0953 48.6434 93.9685 48.6624C93.17 48.6467 92.377 48.8373 91.6353 49.2233C90.8936 49.6093 90.218 50.1831 89.6473 50.9115C88.9733 51.939 88.4653 53.1335 88.1539 54.4232C87.8425 55.7128 87.734 57.0712 87.8349 58.4169L87.8374 58.4202Z" fill="#B30006"/>
</svg>
