<?xml version="1.0" encoding="UTF-8"?>
<svg width="700pt" height="700pt" version="1.1" viewBox="0 0 700 600" xmlns="http://www.w3.org/2000/svg" xmlns:xlink="http://www.w3.org/1999/xlink">
 <g>
  <path d="m70 0v560h560v-560zm455 498.75h-350c-15.629 0-30.074-8.3398-37.887-21.875-7.8164-13.535-7.8164-30.215 0-43.75 7.8125-13.535 22.258-21.875 37.887-21.875h350c15.629 0 30.074 8.3398 37.887 21.875 7.8164 13.535 7.8164 30.215 0 43.75-7.8125 13.535-22.258 21.875-37.887 21.875zm-350-218.75c0-11.602 4.6094-22.73 12.812-30.938 8.207-8.2031 19.336-12.812 30.938-12.812h262.5c15.629 0 30.074 8.3398 37.887 21.875 7.8164 13.535 7.8164 30.215 0 43.75-7.8125 13.535-22.258 21.875-37.887 21.875h-262.5c-11.602 0-22.73-4.6094-30.938-12.812-8.2031-8.207-12.812-19.336-12.812-30.938zm350-131.25h-350c-15.629 0-30.074-8.3398-37.887-21.875-7.8164-13.535-7.8164-30.215 0-43.75 7.8125-13.535 22.258-21.875 37.887-21.875h350c15.629 0 30.074 8.3398 37.887 21.875 7.8164 13.535 7.8164 30.215 0 43.75-7.8125 13.535-22.258 21.875-37.887 21.875z"/>
 </g>
</svg>
