<svg width="249" height="191" viewBox="0 0 249 191" fill="none" xmlns="http://www.w3.org/2000/svg">
<path d="M235.603 0H12.4002C9.11262 0.00382879 5.96081 1.3115 3.63616 3.63616C1.3115 5.96081 0.00382879 9.11262 0 12.4002V177.736C0.00382879 181.024 1.3115 184.175 3.63616 186.5C5.96081 188.825 9.11262 190.132 12.4002 190.136H235.603C238.891 190.132 242.043 188.825 244.367 186.5C246.692 184.175 248 181.024 248.004 177.736V12.4002C248 9.11262 246.692 5.96081 244.367 3.63616C242.043 1.3115 238.891 0.00382879 235.603 0V0ZM231.47 16.5336V49.6007H16.5336V16.5336H231.47ZM16.5336 173.603V82.6679H231.47V173.603H16.5336Z" fill="#B30006"/>
<path d="M70.2673 124.002H37.2002V140.535H70.2673V124.002Z" fill="#B30006"/>
<path d="M119.869 124.002H86.8018V140.535H119.869V124.002Z" fill="#B30006"/>
</svg>
